<?xml version="1.0" standalone="no"?>
<!DOCTYPE svg PUBLIC "-//W3C//DTD SVG 20010904//EN"
 "http://www.w3.org/TR/2001/REC-SVG-20010904/DTD/svg10.dtd">
<svg version="1.0" xmlns="http://www.w3.org/2000/svg"
 width="878.000000pt" height="878.000000pt" viewBox="0 0 878.000000 878.000000"
 preserveAspectRatio="xMidYMid meet">
<metadata>
Created by potrace 1.11, written by Peter Selinger 2001-2013
</metadata>
<g transform="translate(0.000000,878.000000) scale(0.100000,-0.100000)"
fill="#000000" stroke="none">
<path d="M4905 8242 c-2 -3 -25 -6 -51 -7 -53 -4 -162 -14 -196 -20 -13 -2
-72 -11 -133 -20 -113 -16 -138 -20 -190 -31 -69 -13 -252 -46 -270 -49 -11
-1 -36 -5 -55 -9 -19 -3 -51 -8 -70 -11 -19 -2 -44 -7 -55 -9 -12 -2 -48 -7
-80 -11 -33 -4 -69 -9 -80 -11 -19 -4 -88 -8 -280 -19 -49 -3 -106 -8 -125
-10 -19 -2 -60 -7 -90 -9 -46 -5 -219 -34 -295 -50 -51 -11 -162 -38 -175 -44
-8 -3 -19 -7 -25 -7 -5 -1 -17 -5 -25 -8 -8 -3 -40 -13 -70 -23 -57 -17 -236
-87 -268 -103 -9 -5 -44 -22 -77 -38 -89 -42 -220 -116 -223 -125 -2 -4 -8 -8
-14 -8 -9 0 -170 -109 -218 -146 -185 -147 -427 -383 -605 -589 -33 -38 -67
-76 -75 -85 -61 -65 -247 -311 -334 -440 -137 -206 -269 -450 -341 -630 -14
-36 -30 -74 -35 -85 -11 -23 -88 -260 -95 -290 -2 -11 -6 -29 -9 -40 -15 -55
-28 -113 -32 -135 -2 -14 -9 -47 -14 -75 -6 -27 -12 -66 -15 -85 -3 -19 -7
-45 -9 -58 -10 -46 -22 -203 -27 -330 -2 -63 -7 -87 -21 -102 -20 -21 -20 -21
-88 -26 -25 -2 -54 -5 -65 -8 -11 -2 -23 -5 -27 -5 -19 -2 -48 -48 -48 -76 0
-49 28 -67 108 -71 132 -6 147 -25 147 -183 0 -55 2 -101 5 -101 3 0 6 -35 6
-78 10 -511 14 -655 18 -697 3 -27 8 -72 11 -100 5 -52 31 -221 40 -265 25
-124 50 -224 76 -308 146 -464 372 -837 718 -1183 192 -191 384 -340 616 -475
69 -40 261 -137 267 -134 2 0 35 -13 73 -31 66 -30 317 -117 360 -125 11 -2
56 -13 100 -24 92 -23 314 -65 395 -75 30 -3 66 -8 80 -10 120 -19 641 -27
795 -12 162 16 240 25 240 27 0 1 14 4 30 6 43 6 146 23 175 29 14 3 39 8 55
10 17 3 39 9 50 12 11 3 29 7 40 9 22 2 171 39 220 54 17 5 62 19 100 31 39
12 77 23 85 24 8 2 15 4 15 4 0 2 169 61 186 65 25 6 280 112 387 160 114 51
163 72 177 75 6 1 20 9 33 17 12 8 22 12 22 8 0 -4 6 -2 13 4 10 8 106 39 147
47 72 14 338 96 440 137 112 44 325 141 328 150 2 4 12 8 23 8 10 0 19 5 19
10 0 6 6 10 13 10 6 0 65 32 130 70 66 39 123 70 128 70 5 0 9 3 9 8 0 4 21
20 48 37 49 31 253 174 262 185 3 3 25 21 50 40 25 19 47 37 50 40 3 3 19 16
35 28 86 66 241 208 359 331 131 136 136 141 136 148 0 3 8 13 18 22 9 9 37
41 62 71 25 30 47 57 50 60 3 3 17 21 30 40 13 19 27 37 30 40 10 8 123 169
197 280 66 98 205 328 261 430 13 25 37 68 52 95 122 220 180 359 220 528 31
133 35 178 35 357 -1 197 -9 262 -46 379 -63 199 -207 375 -344 422 -22 7 -44
16 -50 20 -5 4 -55 6 -110 5 -106 -3 -166 -18 -243 -63 -43 -24 -152 -128
-152 -144 0 -4 -6 -14 -13 -21 -16 -16 -67 -130 -67 -149 0 -23 -37 -77 -62
-90 -13 -7 -61 -14 -108 -15 -96 -3 -530 -12 -845 -19 -115 -2 -340 -7 -500
-10 -293 -7 -529 -11 -1020 -19 -148 -3 -376 -7 -505 -10 -260 -6 -716 -15
-1055 -21 -121 -2 -328 -6 -460 -10 -235 -5 -420 -9 -1055 -20 -396 -8 -630
-12 -1040 -21 -179 -3 -379 -7 -445 -7 l-120 -1 1 29 c0 27 49 195 63 220 3 6
6 15 7 20 3 16 45 137 59 170 8 17 28 64 45 105 18 41 57 126 86 188 30 62 54
117 54 122 0 6 4 10 8 10 4 0 21 29 37 65 17 36 33 65 38 65 4 0 7 5 7 10 0 6
25 52 55 102 30 50 55 93 55 95 0 3 87 137 103 158 4 5 28 42 54 80 198 299
555 694 838 930 33 28 62 52 65 56 30 32 380 293 430 319 14 7 27 16 30 20 6
8 258 163 340 209 230 129 765 375 863 396 12 2 47 11 77 19 30 9 80 19 110
23 69 9 301 8 440 -1 103 -7 128 -9 240 -22 57 -6 64 -7 140 -18 69 -10 263
-47 280 -53 8 -3 24 -7 35 -8 22 -4 161 -40 210 -55 178 -57 340 -115 457
-164 21 -9 41 -17 45 -17 5 0 19 -7 33 -14 14 -8 88 -45 165 -83 77 -38 178
-92 224 -120 45 -29 86 -52 90 -52 4 0 16 -9 26 -20 10 -11 22 -20 27 -20 6 0
22 -9 36 -20 15 -12 68 -52 119 -90 50 -37 109 -83 130 -102 71 -63 239 -233
289 -293 27 -33 51 -62 54 -65 3 -3 17 -21 30 -40 13 -19 27 -37 30 -40 9 -9
110 -158 110 -164 0 -3 13 -24 29 -48 33 -49 148 -273 172 -333 39 -100 68
-223 74 -315 3 -45 1 -41 29 -78 l24 -33 30 41 c30 41 30 44 18 140 -13 101
-18 128 -37 199 -22 82 -123 294 -204 426 -50 82 -110 171 -117 173 -4 2 -8 8
-8 13 0 9 -105 153 -135 185 -5 7 -26 31 -45 55 -37 47 -244 257 -295 299 -16
14 -48 39 -70 55 -22 17 -44 35 -50 41 -18 20 -169 120 -268 178 -80 47 -324
169 -412 206 -11 4 -36 15 -55 23 -19 9 -71 30 -115 47 -44 17 -93 37 -110 45
-16 7 -50 18 -75 26 -25 7 -49 15 -55 19 -39 24 -473 143 -567 155 -15 2 -53
9 -85 14 -32 6 -76 13 -98 16 -22 3 -58 8 -80 12 -35 6 -55 7 -128 12 -56 3
39 35 143 48 19 2 49 6 65 8 174 21 581 27 745 11 47 -5 95 -9 107 -10 12 -1
25 -5 28 -8 4 -4 13 -4 20 -2 15 6 159 -18 315 -52 116 -25 356 -91 375 -102
6 -4 19 -8 30 -9 10 -2 23 -9 27 -16 4 -6 8 -9 8 -5 0 18 302 -119 455 -207
84 -48 319 -205 335 -224 3 -3 34 -30 70 -60 242 -202 498 -519 649 -801 69
-130 158 -336 176 -410 1 -3 5 -12 8 -20 13 -28 47 -148 77 -269 20 -83 40
-129 71 -164 14 -15 20 -16 42 -6 31 14 37 47 19 109 -7 25 -14 54 -17 65 -57
272 -171 576 -307 818 -64 114 -194 308 -248 369 -22 25 -40 48 -40 51 0 3
-17 23 -37 45 -21 21 -52 54 -69 73 -242 266 -645 541 -1029 703 -92 39 -324
123 -360 130 -11 3 -47 12 -80 21 -59 16 -76 20 -123 29 -13 3 -31 7 -40 10
-9 3 -30 8 -47 11 -16 2 -55 9 -85 15 -62 11 -124 19 -190 26 -25 3 -65 7 -90
10 -58 7 -628 13 -635 6z m-1657 -411 c-141 -71 -328 -174 -536 -296 -10 -5
-32 -20 -49 -32 -17 -13 -33 -23 -36 -23 -7 0 -322 -215 -337 -230 -3 -3 -41
-32 -84 -65 -43 -33 -84 -64 -90 -70 -10 -8 -70 -58 -139 -115 -134 -109 -452
-429 -587 -590 -12 -14 -31 -36 -43 -50 -12 -14 -45 -54 -72 -90 -28 -36 -53
-67 -56 -70 -3 -3 -50 -68 -105 -145 -101 -143 -214 -320 -279 -440 -12 -22
-33 -60 -47 -85 -67 -121 -108 -202 -108 -215 0 -8 -4 -15 -10 -15 -5 0 -10
-4 -10 -10 0 -5 -14 -40 -31 -77 -18 -37 -40 -86 -49 -108 -10 -22 -24 -56
-33 -75 -8 -19 -31 -78 -51 -130 -21 -52 -43 -111 -51 -130 -23 -59 -28 -74
-32 -93 -1 -10 -10 -31 -18 -46 -8 -16 -11 -31 -8 -35 4 -3 1 -6 -6 -6 -9 0
-11 31 -7 128 3 70 8 141 10 157 3 17 7 48 10 70 3 22 8 54 11 70 3 17 7 44
10 60 7 42 11 58 35 160 12 50 23 97 25 105 2 8 22 69 45 135 22 66 42 125 44
130 2 6 8 23 14 38 7 16 12 30 12 31 0 14 133 280 178 356 47 81 190 304 215
335 4 6 35 48 68 95 72 102 100 139 117 156 6 7 12 15 12 18 0 4 11 19 24 34
13 15 51 61 85 102 151 182 346 379 506 511 104 85 231 179 244 179 5 0 11 4
13 9 10 27 323 191 483 254 141 55 297 105 345 112 8 1 22 5 30 8 17 6 67 18
90 22 8 2 69 12 135 24 134 23 157 25 235 29 l55 2 -177 -89z m5106 -2829 c69
-34 122 -82 175 -162 88 -130 129 -275 132 -456 2 -75 -8 -225 -17 -269 -2
-11 -7 -38 -10 -60 -14 -113 -66 -261 -154 -440 -64 -132 -119 -234 -130 -245
-3 -3 -36 -57 -74 -120 -115 -191 -326 -503 -411 -609 -172 -211 -337 -392
-475 -516 -53 -47 -204 -171 -244 -200 -16 -11 -33 -24 -40 -30 -6 -5 -34 -26
-61 -44 -28 -19 -52 -38 -55 -41 -3 -3 -48 -33 -100 -65 -52 -33 -97 -62 -100
-65 -11 -13 -234 -135 -355 -195 -161 -79 -283 -127 -291 -113 -3 5 -4 11 -3
12 10 8 151 113 175 131 37 27 166 127 180 140 7 5 31 26 55 45 103 82 300
261 408 369 190 191 264 276 454 516 39 49 117 159 177 250 40 61 85 129 101
153 16 23 29 45 29 47 0 2 13 26 29 53 68 116 221 411 221 426 0 3 15 37 34
78 59 129 127 309 132 352 3 22 1 61 -3 86 l-8 44 -45 -45 c-36 -36 -53 -66
-84 -150 -22 -57 -49 -124 -60 -149 -11 -25 -21 -47 -21 -50 -9 -34 -197 -414
-207 -418 -4 -2 -8 -8 -8 -14 0 -13 -115 -205 -193 -323 -75 -112 -227 -319
-239 -323 -4 -2 -8 -10 -8 -18 0 -8 -4 -14 -8 -14 -4 0 -24 -21 -45 -47 -42
-55 -61 -78 -160 -187 -146 -162 -349 -356 -527 -506 -36 -30 -71 -61 -79 -68
-61 -58 -489 -362 -509 -362 -6 0 -12 -4 -14 -9 -10 -27 -438 -208 -438 -185
0 3 -8 1 -17 -5 -10 -5 -38 -12 -63 -15 -25 -3 -55 -8 -67 -10 -81 -16 -649
-38 -998 -38 -237 0 -598 20 -665 37 -8 2 -37 7 -65 11 -27 3 -59 8 -70 10
-11 2 -36 7 -55 10 -19 3 -72 15 -117 25 -44 10 -94 21 -110 24 -15 2 -86 21
-158 40 -71 20 -138 37 -148 40 -32 7 -192 57 -212 66 -11 4 -40 15 -65 23
-110 36 -239 86 -380 147 -83 36 -398 194 -455 229 -27 16 -57 33 -65 37 -8 4
-52 31 -98 60 -45 29 -87 53 -92 53 -4 0 -10 3 -12 8 -2 4 -32 27 -68 51 -151
102 -371 307 -470 437 -25 32 -50 65 -57 72 -16 16 -135 197 -163 247 -50 86
-140 275 -175 365 -49 124 -135 380 -128 380 3 0 1 6 -5 13 -8 10 -14 28 -27
87 -1 3 -4 19 -8 35 -21 86 -27 138 -28 240 -1 63 8 252 16 330 2 17 3 38 4
48 1 10 12 29 27 43 l25 26 277 -7 c152 -4 349 -8 437 -10 154 -4 416 -11 750
-20 88 -2 257 -7 375 -10 118 -3 283 -8 365 -10 148 -5 381 -11 745 -20 224
-6 436 -12 710 -20 201 -7 334 -10 715 -19 105 -3 271 -7 370 -10 252 -8 551
-17 745 -21 91 -2 251 -6 355 -10 303 -9 504 -14 745 -20 264 -7 421 -12 620
-21 241 -12 421 -10 462 4 48 17 109 75 133 127 10 21 19 62 21 90 2 27 4 52
5 55 1 3 0 10 -1 15 -1 6 -4 21 -6 33 -3 13 -14 43 -25 66 -49 105 -136 154
-267 151 -61 -2 -158 10 -170 20 -2 2 6 35 18 74 33 113 123 213 215 242 6 2
25 8 43 15 54 18 137 8 206 -24z m-294 -527 c52 -27 72 -98 39 -134 -26 -28
-96 -45 -138 -35 -41 11 -63 45 -78 121 -10 51 -10 52 16 56 62 10 134 6 161
-8z m-338 -22 c24 -26 58 -106 58 -137 0 -9 -10 -12 -27 -10 -16 1 -53 5 -83
9 -30 3 -64 7 -75 9 -11 3 -26 5 -33 5 -11 1 -42 57 -42 76 0 8 141 74 161 74
8 1 27 -11 41 -26z m-7280 -1161 c9 -20 41 -98 71 -172 103 -256 229 -491 352
-655 119 -159 217 -264 385 -410 34 -29 217 -167 256 -192 11 -7 36 -24 56
-37 161 -107 494 -281 734 -383 149 -64 176 -75 190 -78 6 -2 27 -9 45 -17
112 -48 545 -180 634 -193 11 -1 39 -8 63 -14 24 -7 55 -14 70 -16 15 -2 36
-6 47 -8 11 -2 38 -8 60 -12 22 -5 42 -9 45 -10 3 0 27 -4 53 -9 27 -4 56 -9
65 -11 10 -1 42 -6 73 -9 31 -4 65 -8 75 -10 11 -2 51 -7 89 -10 39 -4 81 -9
95 -11 125 -19 688 -25 935 -11 72 4 132 8 135 8 3 0 49 0 103 -1 70 -1 97 -4
97 -13 0 -15 -319 -141 -410 -163 -8 -2 -44 -12 -80 -23 -120 -37 -368 -97
-435 -106 -11 -2 -33 -6 -50 -9 -70 -15 -149 -27 -280 -42 -126 -15 -244 -20
-460 -19 -255 0 -339 5 -499 29 -49 7 -94 11 -98 9 -4 -3 -8 0 -8 6 0 6 -4 9
-8 6 -4 -3 -26 -1 -48 4 -21 5 -52 11 -69 13 -16 3 -49 10 -73 16 -24 7 -55
14 -70 16 -15 2 -56 13 -92 24 -36 10 -90 27 -120 36 -30 9 -64 20 -75 24 -11
5 -78 32 -150 61 -230 93 -465 226 -659 373 -44 34 -86 66 -92 72 -6 5 -39 34
-72 63 -50 44 -184 177 -227 226 -86 98 -200 248 -252 332 -98 157 -169 298
-239 472 -51 127 -60 155 -106 322 -30 112 -31 118 -54 245 -1 11 -5 34 -8 50
-2 17 -9 61 -15 98 -24 143 -24 177 -3 177 4 0 15 -17 24 -38z"/>
<path d="M1931 3723 c-80 -20 -121 -43 -171 -93 -56 -56 -82 -126 -79 -207 3
-98 35 -152 114 -198 50 -30 95 -45 269 -89 168 -43 231 -76 263 -136 27 -50
29 -96 8 -146 -18 -43 -31 -56 -82 -83 -68 -34 -152 -43 -271 -28 -86 11 -213
68 -263 118 -11 11 -24 17 -28 14 -17 -10 -49 -72 -42 -82 20 -31 176 -116
233 -127 13 -3 47 -9 77 -15 75 -15 224 -6 301 18 105 33 174 104 195 201 21
96 -13 203 -82 257 -52 42 -163 85 -277 108 -80 17 -188 50 -221 68 -21 12
-50 38 -63 57 -20 30 -23 44 -20 97 8 121 95 184 258 186 114 1 208 -29 278
-87 l31 -27 25 43 25 43 -27 22 c-40 32 -141 80 -187 89 -70 13 -210 11 -264
-3z"/>
<path d="M2623 3732 l-93 -3 0 -44 c0 -29 5 -45 13 -46 6 -1 93 -2 192 -3
l180 -1 0 -493 0 -492 53 0 c34 0 52 4 53 13 0 6 2 228 2 492 l2 480 190 0
190 1 3 47 3 47 -73 0 c-40 1 -197 2 -348 3 -151 1 -317 1 -367 -1z"/>
<path d="M3878 3732 c-39 -3 -40 -6 -40 -57 0 -14 0 -28 1 -33 0 -4 87 -7 191
-7 l190 1 0 -41 c1 -22 1 -244 1 -492 l0 -453 54 0 54 0 0 468 c0 257 0 478 0
492 l1 26 186 -1 c102 0 189 2 192 5 8 6 10 90 2 90 -30 3 -805 4 -832 2z"/>
<path d="M5146 3723 c-221 -50 -382 -259 -390 -507 -2 -56 2 -110 11 -145 9
-31 16 -60 17 -66 4 -23 51 -113 79 -150 107 -142 247 -215 400 -210 97 4 126
10 183 35 24 11 46 20 49 20 23 0 132 96 162 143 27 44 23 56 -29 78 -29 12
-32 11 -52 -17 -20 -27 -65 -73 -100 -102 -9 -7 -36 -21 -60 -32 -260 -111
-533 82 -553 390 -14 222 105 412 291 465 142 41 297 -6 385 -116 l44 -56 39
21 c21 12 38 24 38 29 0 16 -55 94 -89 124 -38 34 -134 85 -186 98 -52 13
-177 12 -239 -2z"/>
<path d="M5873 3727 c-4 -6 -7 -852 -4 -1035 l1 -43 53 3 52 3 0 245 c-1 135
2 247 6 250 6 4 612 5 629 1 3 0 5 -108 5 -238 -1 -131 1 -244 3 -250 3 -8 23
-13 53 -13 56 0 51 -12 50 135 -1 50 -1 96 -1 103 0 6 0 32 0 57 0 25 0 52 0
60 0 8 0 35 0 60 0 25 0 52 0 60 0 8 0 35 0 60 0 25 0 51 -1 58 0 6 1 107 1
222 1 116 1 222 1 238 -1 26 -3 27 -51 27 -33 0 -50 -4 -51 -12 -1 -7 -3 -110
-4 -228 -1 -118 -3 -221 -4 -227 -1 -10 -71 -13 -316 -13 -245 0 -315 3 -316
13 -1 6 -3 109 -4 227 -1 118 -3 222 -4 230 -1 11 -13 15 -47 15 -25 0 -48 -4
-51 -8z"/>
<path d="M3570 3190 l0 -540 53 0 52 0 1 540 0 540 -53 0 -53 0 0 -540z"/>
<path d="M1956 6421 c-2 -3 -4 -345 -4 -758 l0 -753 76 0 77 0 -1 610 c-1 336
3 609 7 608 10 -3 139 -226 139 -239 0 -5 5 -9 10 -9 6 0 10 -4 10 -10 0 -5
13 -31 29 -58 16 -27 43 -74 59 -103 89 -159 282 -492 293 -505 8 -10 26 -14
53 -12 l41 3 87 150 c48 83 87 155 88 162 0 6 4 13 8 15 7 2 66 102 95 158 4
8 20 36 35 61 15 26 72 125 127 222 55 96 102 173 105 170 3 -3 6 -273 6 -601
1 -329 2 -603 3 -609 1 -9 22 -13 70 -13 46 0 70 4 73 13 2 6 4 347 4 757 l-1
745 -72 1 c-40 0 -76 -2 -80 -5 -10 -7 -28 -37 -47 -76 -8 -16 -28 -52 -45
-80 -16 -27 -38 -66 -49 -85 -11 -19 -61 -107 -112 -195 -125 -216 -120 -207
-180 -315 -30 -52 -58 -98 -63 -101 -5 -3 -9 -10 -9 -15 0 -5 -15 -35 -34 -67
-19 -32 -34 -62 -34 -66 0 -15 -27 -20 -39 -8 -6 6 -11 15 -11 19 0 5 -24 50
-53 101 -30 50 -65 112 -79 137 -14 25 -34 61 -45 80 -19 32 -150 262 -212
371 -14 25 -59 104 -99 175 l-74 130 -74 1 c-41 0 -76 -3 -78 -6z"/>
<path d="M4247 6311 c-27 -64 -53 -125 -57 -136 -5 -11 -52 -123 -105 -250
-53 -126 -102 -243 -109 -260 -8 -16 -20 -47 -27 -67 -7 -21 -17 -38 -21 -38
-4 0 -7 -3 -6 -7 3 -9 -13 -53 -44 -122 -11 -24 -28 -67 -39 -95 -11 -28 -27
-64 -34 -81 -8 -16 -23 -52 -34 -80 -11 -27 -40 -99 -65 -158 l-46 -108 82 3
82 3 31 75 c17 42 39 96 49 120 10 25 20 50 22 55 6 20 86 210 90 215 10 9
676 5 683 -5 7 -9 34 -75 152 -362 l42 -103 78 0 c44 0 79 2 79 5 0 3 -9 24
-20 45 -11 22 -18 40 -14 40 3 0 0 10 -8 23 -8 12 -22 42 -32 67 -10 25 -24
59 -31 75 -7 17 -28 66 -46 110 -18 44 -50 123 -72 175 -21 52 -55 133 -74
180 -31 76 -42 101 -74 175 -50 114 -171 413 -172 423 0 6 -4 12 -9 12 -4 0
-8 6 -8 13 0 8 -15 49 -34 93 l-35 79 -63 1 -63 0 -48 -115z m125 -98 c6 -16
12 -30 13 -33 1 -3 7 -18 13 -33 7 -16 22 -52 33 -80 12 -29 27 -65 34 -82 27
-63 168 -412 180 -446 l13 -36 -304 0 c-167 0 -304 2 -304 3 0 4 83 201 96
228 8 16 14 33 14 38 0 5 11 33 24 61 13 29 36 83 51 122 15 38 33 83 40 100
7 16 20 46 28 65 9 19 23 54 32 78 10 23 19 42 21 42 3 0 10 -12 16 -27z"/>
<path d="M5270 6399 c0 -16 -1 -319 -1 -674 0 -355 1 -683 1 -730 l0 -86 308
1 c357 1 409 9 549 76 71 34 109 60 161 112 69 68 113 122 109 133 -1 4 6 16
15 26 16 18 82 183 73 183 -2 0 1 15 7 33 27 86 15 342 -22 470 -30 103 -117
247 -182 302 -107 91 -201 137 -347 171 -14 4 -171 8 -348 9 l-323 3 0 -29z
m645 -119 c150 -30 253 -98 337 -221 76 -112 109 -241 103 -413 -4 -153 -14
-196 -73 -315 -51 -102 -132 -181 -237 -231 -44 -21 -96 -41 -115 -45 -19 -4
-142 -9 -272 -11 l-238 -3 0 623 c0 342 2 625 4 627 10 10 436 1 491 -11z"/>
</g>
</svg>
