<svg xmlns="http://www.w3.org/2000/svg" xmlns:xlink="http://www.w3.org/1999/xlink" width="15.221" height="15.221" viewBox="0 0 15.221 15.221">
  <defs>
    <clipPath id="clip-path">
      <rect width="15.221" height="15.221" fill="none"/>
    </clipPath>
  </defs>
  <g id="Instagram" clip-path="url(#clip-path)">
    <path id="Path_3" data-name="Path 3" d="M7.61,1.353a23.335,23.335,0,0,1,3.044.085,3.922,3.922,0,0,1,1.438.254A2.97,2.97,0,0,1,13.53,3.129a3.922,3.922,0,0,1,.254,1.438c0,.761.085,1.015.085,3.044a23.336,23.336,0,0,1-.085,3.044,3.922,3.922,0,0,1-.254,1.438,2.97,2.97,0,0,1-1.438,1.438,3.922,3.922,0,0,1-1.438.254c-.761,0-1.015.085-3.044.085a23.336,23.336,0,0,1-3.044-.085,3.922,3.922,0,0,1-1.438-.254,2.97,2.97,0,0,1-1.438-1.438,3.922,3.922,0,0,1-.254-1.438c0-.761-.085-1.015-.085-3.044a23.335,23.335,0,0,1,.085-3.044,3.922,3.922,0,0,1,.254-1.438,3.037,3.037,0,0,1,.592-.846,1.43,1.43,0,0,1,.846-.592,3.922,3.922,0,0,1,1.438-.254A23.335,23.335,0,0,1,7.61,1.353M7.61,0A24.985,24.985,0,0,0,4.482.085a5.22,5.22,0,0,0-1.86.338,3.31,3.31,0,0,0-1.353.846A3.31,3.31,0,0,0,.423,2.621a3.853,3.853,0,0,0-.338,1.86A24.985,24.985,0,0,0,0,7.61a24.985,24.985,0,0,0,.085,3.129A5.22,5.22,0,0,0,.423,12.6a3.31,3.31,0,0,0,.846,1.353,3.31,3.31,0,0,0,1.353.846,5.22,5.22,0,0,0,1.86.338,24.986,24.986,0,0,0,3.129.085,24.986,24.986,0,0,0,3.129-.085A5.22,5.22,0,0,0,12.6,14.8a3.548,3.548,0,0,0,2.2-2.2,5.22,5.22,0,0,0,.338-1.86c0-.846.085-1.1.085-3.129a24.986,24.986,0,0,0-.085-3.129,5.22,5.22,0,0,0-.338-1.86,3.31,3.31,0,0,0-.846-1.353A3.31,3.31,0,0,0,12.6.423a5.22,5.22,0,0,0-1.86-.338A24.985,24.985,0,0,0,7.61,0m0,3.721a3.827,3.827,0,0,0-3.89,3.89,3.89,3.89,0,1,0,3.89-3.89m0,6.427A2.492,2.492,0,0,1,5.074,7.61,2.492,2.492,0,0,1,7.61,5.074,2.492,2.492,0,0,1,10.147,7.61,2.492,2.492,0,0,1,7.61,10.147m4.059-7.526a.93.93,0,1,0,.93.93.938.938,0,0,0-.93-.93" fill="#8a8484" fill-rule="evenodd"/>
  </g>
</svg>
